<svg width="24" height="24" viewBox="0 0 24 24" fill="none" xmlns="http://www.w3.org/2000/svg">
<path d="M5.67434 7.79655C5.67434 7.34288 6.03931 6.9751 6.48948 6.9751H23.1851C23.6352 6.9751 24.0002 7.34288 24.0002 7.79655V13.5679C24.0002 14.0216 23.6352 14.3894 23.1851 14.3894H6.48948C6.03931 14.3894 5.67434 14.0216 5.67434 13.5679V7.79655Z" fill="#6759FF"/>
<path d="M4.3105 13.0204C4.42673 12.5822 4.87364 12.3224 5.30838 12.4402L21.4353 16.811C21.8701 16.9288 22.1283 17.3795 22.0119 17.8179L20.5321 23.3914C20.4159 23.8297 19.9691 24.0894 19.5344 23.9717L3.40724 19.6009C2.9725 19.483 2.71432 19.0323 2.83072 18.5939L4.3105 13.0204Z" fill="#14CDB8"/>
<path d="M12.5005 14.3893H6.48948C6.03931 14.3893 5.67434 14.0215 5.67434 13.5679V12.5393L12.5005 14.3893Z" fill="#3D93DB"/>
<path d="M0.0125239 3.8972C-0.0656474 3.45044 0.230241 3.02417 0.673555 2.94509L17.1156 0.0127076C17.5589 -0.0663565 17.9818 0.231727 18.06 0.678497L19.0557 6.36116C19.134 6.80794 18.8381 7.23421 18.3948 7.31327L1.95258 10.2457C1.50927 10.3247 1.08652 10.0266 1.00818 9.57987L0.0125239 3.8972Z" fill="#FB4378"/>
<path d="M18.9211 6.9751C18.8015 7.14742 18.6167 7.27378 18.395 7.31333L5.67434 9.58203V7.79655C5.67434 7.34288 6.03931 6.9751 6.48948 6.9751H18.9211Z" fill="#B14EBB"/>
</svg>